<svg height="512" viewBox="0 0 480 480" width="512" xmlns="http://www.w3.org/2000/svg"><path fill="#45acff" d="M319.153 472a8 8 0 01-8 8H47.049c-23.46 0-41.906-20.152-39.845-43.516l24.353-276C33.392 139.685 50.521 124 71.402 124h24.699V83c0-45.766 37.233-83 83-83s83 37.234 83 83v41H286.8a8 8 0 010 16h-24.699v36a8 8 0 01-16 0v-36h-105a8 8 0 010-16h105V83c0-36.944-30.056-67-67-67s-67 30.056-67 67v93a8 8 0 01-16 0v-36H71.402c-12.528 0-22.806 9.411-23.907 21.891l-24.353 276C21.901 451.953 32.949 464 47.049 464h264.104a8 8 0 018 8zM463.99 328.25l-26.577 21.367 3.691 33.903c1.664 15.261-11.224 28.115-26.452 26.458l-33.903-3.685-21.361 26.583c-9.618 11.967-27.814 11.944-37.413.004l-21.368-26.579-33.901 3.692c-15.262 1.661-28.113-11.222-26.458-26.452l3.686-33.903-26.583-21.362c-11.966-9.616-11.944-27.814-.003-37.413l26.578-21.367-3.691-33.903c-1.663-15.261 11.224-28.116 26.452-26.458l33.903 3.685 21.361-26.583c9.629-11.983 27.823-11.933 37.413-.004l21.367 26.579 33.902-3.692c15.226-1.661 28.117 11.191 26.458 26.452l-3.686 33.903 26.583 21.362h.001c11.965 9.616 11.942 27.815.001 37.413zm-10.026-24.942l-29.998-24.106a8 8 0 01-2.942-7.101l4.159-38.259c.551-5.08-3.733-9.371-8.819-8.818l-38.258 4.166a8 8 0 01-7.102-2.94l-24.112-29.994c-3.205-3.988-9.273-3.98-12.471.001l-24.106 29.999a8 8 0 01-7.101 2.942l-38.259-4.159c-5.081-.549-9.371 3.733-8.817 8.819l4.166 38.259a8.001 8.001 0 01-2.94 7.101L227.37 303.33c-3.988 3.206-3.98 9.272.001 12.471l29.999 24.106a8 8 0 012.942 7.101l-4.159 38.259c-.553 5.077 3.732 9.371 8.819 8.818l38.258-4.167a8.004 8.004 0 017.102 2.94l24.112 29.994c3.206 3.988 9.271 3.98 12.471-.002l24.106-29.998a8.005 8.005 0 017.101-2.942l38.259 4.159c5.078.553 9.371-3.733 8.817-8.819l-4.166-38.259a8.001 8.001 0 012.94-7.101l29.993-24.112c3.989-3.205 3.981-9.27-.001-12.47zm-79.206-26.965a8 8 0 00-11.314 0l-60 60a8 8 0 0011.314 11.314l60-60a8 8 0 000-11.314zM385.101 340c0 7.72-6.28 14-14 14s-14-6.28-14-14 6.28-14 14-14 14 6.28 14 14zm-12 0c0-1.103-.897-2-2-2s-2 .897-2 2 .897 2 2 2 2-.897 2-2zm-76-60c0-7.72 6.28-14 14-14s14 6.28 14 14-6.28 14-14 14-14-6.28-14-14zm12 0c0 1.103.897 2 2 2s2-.897 2-2-.897-2-2-2-2 .897-2 2z"/></svg>