<svg height="512" viewBox="0 0 61 45" width="512" xmlns="http://www.w3.org/2000/svg"><path fill="#ff9681" d="M43.07 3.84c.35-4.66-7.44-5.41-8-.66-4.87.64-13.1 2.67-17.56 9.06-4.18 6-5.28 14.07-5.5 16.08C7 31.94 2.58 34.66.58 36.57A1.9 1.9 0 00.32 39a1.87 1.87 0 002.59.55c.24-.16 2.53-1.5 8.45-.66 10.65 1.51 8.33 7 19.73 6 9.9-.9 15.87-8 17.39-10 1.89.09 3.74.21 5.6.45a5.61 5.61 0 003.75-.44 4.25 4.25 0 001.88-2.9 27.91 27.91 0 00.45-5.88c-.02-11.4-6.45-18.88-17.09-22.28zM23.16 28.25c.6-5.07 3.47-20.86 15.67-23.31 9.28 5.23 4.77 23 3.47 27.47-7.58-1.1-15.15-3.41-19.14-4.16zm17.9-25A8.15 8.15 0 0037.19 3c.55-1.51 3.59-1.28 3.87.28zM19.2 13.39c3.07-4.42 8.35-6.54 12.69-7.56-8 5.77-10.17 17.68-10.71 22.17a33.12 33.12 0 00-7-.23c.34-2.77 1.57-9.44 5.02-14.38zm11.71 29.49c-10.56 1-8-4.39-19.27-6-4.94-.7-7.72 0-9 .55C4.8 35.62 9 33 13.39 29.83c9.33-1.4 20.17 4.22 32.61 5a23.12 23.12 0 01-15.09 8.05zm26.84-11.31c-.41 1.94-1.43 2.09-3.41 1.83-4.37-.57-6.76-.39-10-.74 2.3-8 4-20.21-1.19-26.68 7.18 2.47 12.6 7 14.39 14.52.77 3.643.842 7.4.21 11.07z"/></svg>