<svg class="logo-secure" xmlns="http://www.w3.org/2000/svg" viewBox="0 0 78.92 93.98"><path d="M31.7 7.38S7.48 12.19 2.38 21.71s-.17 16.94 6.51 20.85 12.84 6.32 20.85-4.78C35.39 30 31.7 7.38 31.7 7.38z" fill="#3cd6e3"/><path fill="#FFF" d="M77.73 0S53.51 4.81 48.41 14.33s-.22 17 6.51 20.86 12.84 6.31 20.85-4.78C81.42 22.59 77.73 0 77.73 0zM31.45 55.52S7.21 60.33 2.13 69.86 1.92 86.8 8.65 90.71 21.49 97 29.5 85.93c5.65-7.82 1.95-30.41 1.95-30.41zm46.03-7.37S53.27 53 48.21 62.48 48 79.42 54.73 83.33s12.84 6.32 20.85-4.78c5.63-7.82 1.9-30.4 1.9-30.4z"/></svg>